<?xml version="1.0" encoding="utf-8"?>
<!-- Generator: Adobe Illustrator 16.0.0, SVG Export Plug-In . SVG Version: 6.00 Build 0)  -->
<svg version="1.2" baseProfile="tiny" id="Layer_1" xmlns="http://www.w3.org/2000/svg" xmlns:xlink="http://www.w3.org/1999/xlink"
	 x="0px" y="0px" width="182.492px" height="70.184px" viewBox="0 0 182.492 70.184" xml:space="preserve">
<path fill="#FFFFFF" d="M123.44,2.824c0-1.559,1.264-2.824,2.824-2.824s2.824,1.265,2.824,2.824s-1.264,2.824-2.824,2.824
	S123.44,4.383,123.44,2.824"/>
<path fill="#FFFFFF" d="M0.388,43.709H4.1V20.106c2.673-4.678,6.236-7.053,10.614-7.053c5.492,0,8.166,4.008,8.166,12.024v18.632
	h3.71V20.106c2.599-4.678,6.236-7.053,10.616-7.053c5.492,0,8.089,4.008,8.089,12.024v18.632h3.787V23.298
	c0-8.761-4.156-13.659-11.431-13.659c-4.676,0-8.388,2.226-12.027,6.828c-2.297-4.824-5.418-6.828-10.39-6.828
	c-4.454,0-8.091,2.004-11.134,5.94v-5.347H0.388V43.709"/>
<path fill="#FFFFFF" d="M72.273,36.953c-3.342,2.821-6.236,4.307-9.13,4.307c-4.084,0-6.534-2.152-6.534-5.567
	c0-5.196,5.569-9.056,15.664-9.205V36.953 M72.346,40.443c0,1.266,0.029,3.309,0.029,3.309h3.385V20.847
	c0-7.794-2.819-11.358-10.689-11.358c-3.49,0-6.903,1.264-10.541,3.712v3.637c3.638-2.671,6.831-4.083,10.245-4.083
	c5.27,0,7.498,2.228,7.498,7.2v3.565c-12.77,0.518-19.449,5.049-19.449,12.322c0,5.048,3.71,8.609,9.279,8.609
	C65.815,44.452,68.858,43.116,72.346,40.443"/>
<path fill="#FFFFFF" d="M133.403,43.709h3.714V20.106c2.671-4.678,6.234-7.053,10.614-7.053c5.492,0,8.165,4.008,8.165,12.024
	v18.632h3.711V20.106c2.599-4.678,6.234-7.053,10.614-7.053c5.494,0,8.091,4.008,8.091,12.024v18.632h3.786V23.298
	c0-8.761-4.155-13.659-11.43-13.659c-4.679,0-8.388,2.226-12.027,6.828c-2.301-4.824-5.418-6.828-10.39-6.828
	c-4.454,0-8.093,2.004-11.134,5.94v-5.347h-3.714V43.709"/>
<rect x="124.372" y="10.233" fill="#FFFFFF" width="3.788" height="33.477"/>
<polygon fill="#FFC527" points="84.919,10.232 80.219,10.232 94.272,26.735 80.287,43.802 80.202,43.905 84.929,43.905 
	99.238,26.848 99.274,26.808 84.938,10.254 "/>
<polygon fill="#FFC527" points="105.438,26.735 119.405,10.335 119.495,10.232 114.791,10.232 100.474,26.767 100.438,26.806 
	114.764,43.882 114.783,43.905 119.51,43.905 "/>
<path fill="#FFFFFF" d="M1.613,61.108c1.052-1.01,2.408-1.553,3.868-1.553c1.476,0,2.861,0.543,3.885,1.553
	c1.069,1.035,1.611,2.315,1.611,3.808c0,1.386-0.558,2.724-1.594,3.719c-1.071,1.022-2.409,1.55-3.902,1.55
	c-1.46,0-2.845-0.557-3.868-1.55C0.558,67.608,0,66.285,0,64.823C0,63.438,0.59,62.098,1.613,61.108 M2.711,67.639
	c0.722,0.738,1.731,1.145,2.77,1.145c1.069,0,2.033-0.391,2.785-1.145c0.739-0.74,1.145-1.716,1.145-2.771
	c0-1.052-0.406-2.001-1.158-2.771c-0.739-0.75-1.718-1.156-2.772-1.156c-1.039,0-2.018,0.42-2.77,1.156
	c-0.737,0.723-1.145,1.719-1.145,2.771C1.566,65.923,1.974,66.899,2.711,67.639"/>
<polygon fill="#FFFFFF" points="22.097,59.72 27.954,59.72 27.954,61.03 23.557,61.03 23.557,64.071 27.817,64.071 27.817,65.399 
	23.557,65.399 23.557,70.004 22.097,70.004 "/>
<polygon fill="#FFFFFF" points="39.15,59.72 45.007,59.72 45.007,61.03 40.61,61.03 40.61,64.071 44.871,64.071 44.871,65.399 
	40.61,65.399 40.61,70.004 39.15,70.004 "/>
<rect x="56.248" y="59.721" fill="#FFFFFF" width="1.476" height="10.283"/>
<path fill="#FFFFFF" d="M78.209,69.22c-1.203,0.632-2.468,0.962-3.703,0.962c-1.19,0-2.259-0.312-3.192-0.916
	c-1.535-0.996-2.423-2.621-2.423-4.443c0-1.383,0.586-2.736,1.61-3.715c1.099-1.039,2.454-1.553,4.11-1.553
	c1.414,0,2.559,0.393,3.508,0.827v1.599c-1.25-0.68-2.378-1.039-3.508-1.039c-2.454,0-4.155,1.73-4.155,3.928
	s1.701,3.914,4.065,3.914c1.206,0,2.424-0.407,3.688-1.223V69.22"/>
<polygon fill="#FFFFFF" points="89.375,59.72 95.564,59.72 95.564,61.03 90.835,61.03 90.835,64.147 95.428,64.147 95.428,65.472 
	90.835,65.472 90.835,68.677 95.715,68.677 95.715,70.004 89.375,70.004 "/>
<path fill="#FFFFFF" d="M120.322,59.719h3.207c2.167,0,3.416,1.116,3.416,2.937c0,1.823-1.249,2.921-3.416,2.921h-1.746v4.428
	h-1.461V59.719 M123.377,64.266c1.384,0,2.033-0.451,2.033-1.61s-0.649-1.611-2.033-1.611h-1.594v3.222H123.377z"/>
<path fill="#FFFFFF" d="M140.149,59.72h1.069l4.517,10.284h-1.52l-1.327-3.028h-4.379l-1.311,3.028h-1.506L140.149,59.72z
	 M142.288,65.653l-1.626-3.703l-1.581,3.703H142.288z"/>
<path fill="#FFFFFF" d="M155.966,59.72h3.014c2.107,0,3.249,1.038,3.249,2.815c0,1.34-0.584,2.138-1.926,2.559
	c0.452,0.242,0.737,0.648,1.071,1.145l2.499,3.765h-1.778l-1.763-2.695c-0.797-1.218-1.293-1.896-2.452-1.896h-0.438v4.591h-1.476
	V59.72 M158.663,64.177c1.371,0,2.047-0.526,2.047-1.61c0-1.16-0.663-1.597-2.047-1.597h-1.221v3.207H158.663z"/>
<polygon fill="#FFFFFF" points="174.014,59.72 175.49,59.72 175.49,64.343 179.781,59.72 181.631,59.72 177.16,64.538 
	182.492,70.004 180.443,70.004 175.49,64.915 175.49,70.004 174.014,70.004 "/>
<rect x="0.288" y="51.374" fill="#FFC527" width="181.784" height="1.799"/>
</svg>
