<?xml version="1.0" encoding="utf-8"?>
<!-- Generator: Adobe Illustrator 16.0.0, SVG Export Plug-In . SVG Version: 6.00 Build 0)  -->
<!DOCTYPE svg PUBLIC "-//W3C//DTD SVG 1.1 Basic//EN" "http://www.w3.org/Graphics/SVG/1.1/DTD/svg11-basic.dtd">
<svg version="1.1" baseProfile="basic" id="Layer_1"
	 xmlns="http://www.w3.org/2000/svg" xmlns:xlink="http://www.w3.org/1999/xlink" x="0px" y="0px" width="1190.55px"
	 height="841.89px" viewBox="0 0 1190.55 841.89" xml:space="preserve">
<path fill="#FFFFFF" d="M164.106,26.081c0-1.559,1.264-2.824,2.824-2.824s2.824,1.265,2.824,2.824s-1.264,2.824-2.824,2.824
	S164.106,27.64,164.106,26.081"/>
<path fill="#FFFFFF" d="M41.054,66.966h3.712V43.363c2.673-4.678,6.236-7.053,10.614-7.053c5.492,0,8.166,4.008,8.166,12.024v18.632
	h3.71V43.363c2.599-4.678,6.236-7.053,10.616-7.053c5.492,0,8.089,4.008,8.089,12.024v18.632h3.787V46.555
	c0-8.761-4.156-13.659-11.431-13.659c-4.676,0-8.388,2.226-12.027,6.828c-2.297-4.824-5.418-6.828-10.39-6.828
	c-4.454,0-8.091,2.004-11.134,5.94v-5.347h-3.712V66.966"/>
<path fill="#FFFFFF" d="M112.939,60.21c-3.342,2.821-6.236,4.307-9.13,4.307c-4.084,0-6.534-2.152-6.534-5.567
	c0-5.196,5.569-9.056,15.664-9.205V60.21 M113.012,63.7c0,1.266,0.029,3.309,0.029,3.309h3.385V44.104
	c0-7.794-2.819-11.358-10.689-11.358c-3.49,0-6.903,1.264-10.541,3.712v3.637c3.638-2.671,6.831-4.083,10.245-4.083
	c5.27,0,7.498,2.228,7.498,7.2v3.565c-12.77,0.518-19.449,5.049-19.449,12.322c0,5.048,3.71,8.609,9.279,8.609
	C106.481,67.708,109.524,66.373,113.012,63.7"/>
<path fill="#FFFFFF" d="M174.069,66.966h3.714V43.363c2.671-4.678,6.234-7.053,10.614-7.053c5.492,0,8.165,4.008,8.165,12.024
	v18.632h3.711V43.363c2.599-4.678,6.234-7.053,10.614-7.053c5.494,0,8.091,4.008,8.091,12.024v18.632h3.786V46.555
	c0-8.761-4.155-13.659-11.43-13.659c-4.679,0-8.388,2.226-12.027,6.828c-2.301-4.824-5.418-6.828-10.39-6.828
	c-4.454,0-8.093,2.004-11.134,5.94v-5.347h-3.714V66.966"/>
<rect x="165.038" y="33.49" fill="#FFFFFF" width="3.788" height="33.477"/>
<polygon fill="#FFC527" points="125.585,33.489 120.886,33.489 134.938,49.992 120.954,67.059 120.869,67.162 125.596,67.162 
	139.905,50.105 139.94,50.065 125.604,33.511 "/>
<polygon fill="#FFC527" points="146.104,49.992 160.072,33.592 160.161,33.489 155.457,33.489 141.14,50.024 141.104,50.063 
	155.43,67.139 155.449,67.162 160.176,67.162 "/>
<path fill="#FFFFFF" d="M42.28,84.365c1.052-1.01,2.408-1.553,3.868-1.553c1.476,0,2.861,0.543,3.885,1.553
	c1.069,1.035,1.611,2.315,1.611,3.808c0,1.386-0.558,2.724-1.594,3.719c-1.071,1.022-2.409,1.55-3.902,1.55
	c-1.46,0-2.845-0.557-3.868-1.55c-1.055-1.026-1.613-2.35-1.613-3.812C40.667,86.695,41.257,85.355,42.28,84.365 M43.378,90.896
	c0.722,0.738,1.731,1.145,2.77,1.145c1.069,0,2.033-0.391,2.785-1.145c0.739-0.74,1.145-1.716,1.145-2.771
	c0-1.052-0.406-2.001-1.158-2.771c-0.739-0.75-1.718-1.156-2.772-1.156c-1.039,0-2.018,0.42-2.77,1.156
	c-0.737,0.723-1.145,1.719-1.145,2.771C42.233,89.18,42.641,90.156,43.378,90.896"/>
<polygon fill="#FFFFFF" points="62.763,82.977 68.62,82.977 68.62,84.287 64.223,84.287 64.223,87.328 68.484,87.328 68.484,88.656 
	64.223,88.656 64.223,93.261 62.763,93.261 "/>
<polygon fill="#FFFFFF" points="79.816,82.977 85.673,82.977 85.673,84.287 81.276,84.287 81.276,87.328 85.537,87.328 
	85.537,88.656 81.276,88.656 81.276,93.261 79.816,93.261 "/>
<rect x="96.914" y="82.978" fill="#FFFFFF" width="1.476" height="10.283"/>
<path fill="#FFFFFF" d="M118.875,92.477c-1.203,0.632-2.468,0.962-3.703,0.962c-1.19,0-2.259-0.312-3.192-0.916
	c-1.535-0.996-2.423-2.621-2.423-4.443c0-1.383,0.586-2.736,1.61-3.715c1.099-1.039,2.454-1.553,4.11-1.553
	c1.414,0,2.559,0.393,3.508,0.827v1.599c-1.25-0.68-2.378-1.039-3.508-1.039c-2.454,0-4.155,1.73-4.155,3.928
	s1.701,3.914,4.065,3.914c1.206,0,2.424-0.407,3.688-1.223V92.477"/>
<polygon fill="#FFFFFF" points="130.042,82.977 136.23,82.977 136.23,84.287 131.501,84.287 131.501,87.404 136.095,87.404 
	136.095,88.729 131.501,88.729 131.501,91.934 136.382,91.934 136.382,93.261 130.042,93.261 "/>
<path fill="#FFFFFF" d="M160.988,82.976h3.207c2.167,0,3.416,1.116,3.416,2.937c0,1.823-1.249,2.921-3.416,2.921h-1.746v4.428
	h-1.461V82.976 M164.043,87.523c1.384,0,2.033-0.451,2.033-1.61s-0.649-1.611-2.033-1.611h-1.594v3.222H164.043z"/>
<path fill="#FFFFFF" d="M180.816,82.977h1.069l4.517,10.284h-1.52l-1.327-3.028h-4.379l-1.311,3.028h-1.506L180.816,82.977z
	 M182.954,88.91l-1.626-3.703l-1.581,3.703H182.954z"/>
<path fill="#FFFFFF" d="M196.633,82.977h3.014c2.107,0,3.249,1.038,3.249,2.815c0,1.34-0.584,2.138-1.926,2.559
	c0.452,0.242,0.737,0.648,1.071,1.145l2.499,3.765h-1.778l-1.763-2.695c-0.797-1.218-1.293-1.896-2.452-1.896h-0.438v4.591h-1.476
	V82.977 M199.33,87.434c1.371,0,2.047-0.526,2.047-1.61c0-1.16-0.663-1.597-2.047-1.597h-1.221v3.207H199.33z"/>
<polygon fill="#FFFFFF" points="214.681,82.977 216.157,82.977 216.157,87.6 220.448,82.977 222.297,82.977 217.827,87.794 
	223.159,93.261 221.109,93.261 216.157,88.171 216.157,93.261 214.681,93.261 "/>
<rect x="40.954" y="74.63" fill="#FFC527" width="181.784" height="1.799"/>
</svg>
