<svg xmlns="http://www.w3.org/2000/svg" xmlns:xlink="http://www.w3.org/1999/xlink" viewBox="0 0 548 550"><defs><style>.cls-1{isolation:isolate;}.cls-2{fill:#fecb2c;}.cls-3,.cls-4{opacity:0.5;}.cls-3,.cls-4,.cls-6,.cls-8,.cls-9{mix-blend-mode:multiply;}.cls-3{fill:url(#linear-gradient);}.cls-4{fill:url(#linear-gradient-2);}.cls-5{fill:#9359a0;}.cls-6,.cls-9{opacity:0.4;}.cls-6{fill:url(#linear-gradient-3);}.cls-16,.cls-17,.cls-18,.cls-7{fill:#dcdd34;}.cls-8{opacity:0.9;fill:url(#linear-gradient-4);}.cls-9{fill:url(#linear-gradient-5);}.cls-10{font-size:122.46px;font-family:Comfortaa-Bold, Comfortaa;font-weight:700;}.cls-10,.cls-14{fill:#802070;}.cls-11{letter-spacing:-0.1em;}.cls-12{letter-spacing:-0.03em;}.cls-13{letter-spacing:-0.07em;}.cls-14{font-size:46.14px;font-family:GillSansStd-Light, Gill Sans Std;}.cls-15{letter-spacing:-0.01em;}.cls-16,.cls-17,.cls-18{font-family:GillSansStd, Gill Sans Std;}.cls-17{letter-spacing:-0.02em;}.cls-18{letter-spacing:0em;}</style><linearGradient id="linear-gradient" x1="152.88" y1="312.98" x2="109.08" y2="353.08" gradientUnits="userSpaceOnUse"><stop offset="0" stop-color="#fff"/><stop offset="0.86" stop-color="#fecb2c"/></linearGradient><linearGradient id="linear-gradient-2" x1="152.88" y1="6978.52" x2="109.08" y2="7018.61" gradientTransform="matrix(1, 0, 0, -1, 0, 7063)" xlink:href="#linear-gradient"/><linearGradient id="linear-gradient-3" x1="228.25" y1="6929.01" x2="298.87" y2="6991.92" gradientTransform="matrix(1, 0, 0, -1, 0, 7063)" gradientUnits="userSpaceOnUse"><stop offset="0" stop-color="#fff"/><stop offset="0.8" stop-color="#9359a0"/></linearGradient><linearGradient id="linear-gradient-4" x1="284.69" y1="193.16" x2="164.5" y2="289.44" gradientUnits="userSpaceOnUse"><stop offset="0" stop-color="#fff"/><stop offset="0.8" stop-color="#b5ce43"/></linearGradient><linearGradient id="linear-gradient-5" x1="228.25" y1="263.47" x2="298.87" y2="326.38" gradientTransform="matrix(1, 0, 0, 1, 0, 0)" xlink:href="#linear-gradient-3"/></defs><title>18978 3 Together FINAL LOGO</title><g class="cls-1"><g id="Layer_1" data-name="Layer 1"><circle class="cls-2" cx="173.83" cy="249.85" r="5.67"/><circle class="cls-2" cx="203.38" cy="268.99" r="4.25"/><circle class="cls-2" cx="141.69" cy="252.53" r="5.2"/><circle class="cls-2" cx="109.66" cy="260.92" r="4.61"/><rect class="cls-2" x="135.54" y="257.18" width="12.53" height="26" rx="2.66" ry="2.66" transform="translate(13.97 -6.88) rotate(2.92)"/><rect class="cls-2" x="148.97" y="239.33" width="4.52" height="28.12" rx="0.96" ry="0.96" transform="translate(146.96 -41.67) rotate(30)"/><rect class="cls-2" x="128.34" y="242.98" width="4.52" height="28.12" rx="0.96" ry="0.96" transform="translate(418.91 255.58) rotate(116.64)"/><rect class="cls-2" x="132.42" y="275.68" width="5.72" height="35.65" rx="1.22" ry="1.22" transform="translate(216.43 606.34) rotate(-169.8)"/><rect class="cls-2" x="140.93" y="275.8" width="5.72" height="35.65" rx="1.22" ry="1.22" transform="translate(266.82 596.54) rotate(-176.01)"/><rect class="cls-2" x="174.77" y="274.09" width="5.72" height="45.38" rx="1.22" ry="1.22" transform="translate(366.36 586.63) rotate(177.83)"/><rect class="cls-2" x="196.7" y="288.58" width="4.27" height="24.48" rx="0.91" ry="0.91" transform="translate(373.91 616.07) rotate(-175.58)"/><rect class="cls-2" x="101.49" y="282.35" width="5.17" height="29.75" rx="1.1" ry="1.1" transform="translate(167.41 605.7) rotate(-172.31)"/><rect class="cls-2" x="108.62" y="282.41" width="4.59" height="29.75" rx="0.97" ry="0.97" transform="translate(221.83 594.56) rotate(180)"/><rect class="cls-2" x="202.09" y="287.05" width="4.27" height="26.61" rx="0.91" ry="0.91" transform="translate(396.71 608.36) rotate(-177.79)"/><rect class="cls-2" x="163.58" y="273.72" width="5.72" height="44.56" rx="1.22" ry="1.22" transform="translate(293.57 610.89) rotate(-172.64)"/><rect class="cls-2" x="161.92" y="238.15" width="4.52" height="28.12" rx="0.96" ry="0.96" transform="translate(446.32 356.93) rotate(143.43)"/><rect class="cls-2" x="181.28" y="244.64" width="4.52" height="28.12" rx="0.96" ry="0.96" transform="translate(456.33 96.84) rotate(94.67)"/><rect class="cls-2" x="196.04" y="258" width="2.91" height="23.19" rx="0.62" ry="0.62" transform="translate(444.99 494.17) rotate(168.44)"/><rect class="cls-2" x="207.8" y="261.61" width="2.98" height="23.19" rx="0.63" ry="0.63" transform="translate(132.58 608.7) rotate(-129.67)"/><rect class="cls-2" x="115.23" y="249.68" width="3" height="23.19" rx="0.64" ry="0.64" transform="translate(119.8 547.43) rotate(-156.54)"/><rect class="cls-2" x="100.5" y="249.79" width="2.86" height="23.19" rx="0.61" ry="0.61" transform="translate(312.53 446.75) rotate(152.66)"/><rect class="cls-2" x="165.42" y="254.81" width="15.03" height="31.19" rx="3.19" ry="3.19" transform="translate(8.9 -5.49) rotate(1.87)"/><rect class="cls-2" x="103.16" y="265.09" width="11.36" height="23.57" rx="2.41" ry="2.41" transform="translate(17.18 -6.15) rotate(3.51)"/><rect class="cls-2" x="197.2" y="272.76" width="10.72" height="20.92" rx="2.28" ry="2.28" transform="translate(17.74 -11.88) rotate(3.51)"/><path class="cls-2" d="M76.31,208.82S71.85,206.4,64.58,207c0,0,9.52,1.59,11.72,6.31C78.51,208.55,88,207,88,207,80.76,206.4,76.31,208.82,76.31,208.82Z"/><path class="cls-2" d="M97.09,223.72s-9.81-1.43-22.77,4.52c0,0,18.55-3.52,25.79,3.66.86-10.17,17.26-19.51,17.26-19.51C103.63,216.26,97.09,223.72,97.09,223.72Z"/><path class="cls-2" d="M126.8,201.9s-3.41-5.61-11.93-9.71c0,0,9.63,8,9,14.7,5.55-3.86,17.24.56,17.24.56C133.36,202.09,126.8,201.9,126.8,201.9Z"/><path class="cls-2" d="M155.37,329.36A199.17,199.17,0,0,0,183.94,317a226.7,226.7,0,0,1-52.7-11.86C106.4,296.37,84,284,65.85,269.14h0a8.74,8.74,0,0,0-14.12,9.51,8.57,8.57,0,0,0,.36,1.14A161.36,161.36,0,0,0,94,340h2A188.31,188.31,0,0,0,155.37,329.36Z"/><path class="cls-3" d="M142.61,308.77c-6.84,9.45-33,27.05-51.6,28.44,1,.94,2,1.88,3,2.79h2a188.3,188.3,0,0,0,59.3-10.63A199.1,199.1,0,0,0,183.94,317C178.24,316.39,165.74,315.14,142.61,308.77Z"/><path class="cls-2" d="M155.37,68.1a199.17,199.17,0,0,1,28.57,12.41,226.7,226.7,0,0,0-52.7,11.86c-24.84,8.72-47.26,21.12-65.39,36h0a8.74,8.74,0,0,1-14.12-9.51,8.57,8.57,0,0,1,.36-1.14A161.36,161.36,0,0,1,94,57.46h2A188.31,188.31,0,0,1,155.37,68.1Z"/><path class="cls-4" d="M143.81,88.34C141.52,80.93,110.48,60.61,91,60.25q1.49-1.41,3-2.79h2a188.3,188.3,0,0,1,59.3,10.63,199.1,199.1,0,0,1,28.57,12.41C178.24,81.07,158.33,83.66,143.81,88.34Z"/><path class="cls-5" d="M275.26,93.29h0c-4.42,19.34-14.14,38.25-28.11,54.68h0l-.28.32c-5.6-22.52-25.34-45.42-54.26-62.88A195.8,195.8,0,0,0,155.37,68.1a188.31,188.31,0,0,0-59.3-10.62H94l1.49-1.4c21.6-20.34,54.24-31.09,89.56-29.51a161.26,161.26,0,0,1,92.66,37.37l.09,1.85A102.2,102.2,0,0,1,275.26,93.29Z"/><path class="cls-6" d="M275.28,93.29h0c-4.42,19.34-14.14,38.25-28.11,54.68h0l-.28.32c-1-3.85-5.69-17.52-10.36-22.75,23.42-15.52,38.07-54.66,38.31-63.64v-.34c1,.78,2,1.54,2.92,2.35l.09,1.85A102.2,102.2,0,0,1,275.28,93.29Z"/><path class="cls-7" d="M278.15,202h0l-.42-.31-1-.76v0c-1.09-.77-2.23-1.48-3.36-2.21,1.13-.73,2.27-1.45,3.36-2.21v0l1-.76.42-.3h0c17-12.39,28.11-28.81,32.18-47.51,5.55-25.47-2.93-53-23.26-75.65-2.43-2.37-5-4.7-7.63-7l-.26-.23h0l-1.44-1.23v0l.09,1.85a102.23,102.23,0,0,1-2.56,27.52h0c-4.42,19.34-14.14,38.25-28.11,54.68h0l-.28.32q-.73.85-1.48,1.68l-.49.54a150.69,150.69,0,0,1-20,18.72,149.71,149.71,0,0,1-27.48,17l-.14-.24.09.26a139.09,139.09,0,0,1-19.28,7.48,1.57,1.57,0,0,0-.21.1,5.23,5.23,0,0,0,.86,10.06,2.37,2.37,0,0,0,.4.17,145.3,145.3,0,0,1,45.76,24.16,150.68,150.68,0,0,1,20,18.72l.49.54q.75.84,1.48,1.68l.28.32h0c14,16.43,23.69,35.34,28.11,54.68h0a102.23,102.23,0,0,1,2.56,27.52l-.09,1.85v0l1.44-1.23h0l.26-.23c2.64-2.27,5.2-4.6,7.63-7,20.32-22.61,28.8-50.18,23.26-75.65C306.26,230.8,295.13,214.39,278.15,202Z"/><path class="cls-8" d="M278.15,202h0l-.42-.31-1-.76v0c-1.09-.77-2.23-1.48-3.36-2.21,1.13-.73,2.27-1.45,3.36-2.21v0l1-.76.42-.3h0c17-12.39,28.11-28.81,32.18-47.51,5.55-25.47-2.93-53-23.26-75.65-2.43-2.37-5-4.7-7.63-7l-.26-.23h0l-1.44-1.23v0l.09,1.85a102.23,102.23,0,0,1-2.56,27.52h0c-4.42,19.34-14.14,38.25-28.11,54.68h0l-.28.32q-.73.85-1.48,1.68l-.49.54a150.69,150.69,0,0,1-20,18.72,149.71,149.71,0,0,1-27.48,17l-.14-.24.09.26a139.09,139.09,0,0,1-19.28,7.48,1.57,1.57,0,0,0-.21.1,5.23,5.23,0,0,0,.86,10.06,2.37,2.37,0,0,0,.4.17,145.3,145.3,0,0,1,45.76,24.16,150.68,150.68,0,0,1,20,18.72l.49.54q.75.84,1.48,1.68l.28.32h0c14,16.43,23.69,35.34,28.11,54.68h0a102.23,102.23,0,0,1,2.56,27.52l-.09,1.85v0l1.44-1.23h0l.26-.23c2.64-2.27,5.2-4.6,7.63-7,20.32-22.61,28.8-50.18,23.26-75.65C306.26,230.8,295.13,214.39,278.15,202Z"/><path class="cls-5" d="M275.26,304.18h0c-4.42-19.34-14.14-38.25-28.11-54.68h0l-.28-.32c-5.6,22.52-25.34,45.42-54.26,62.88a195.8,195.8,0,0,1-37.23,17.33A188.31,188.31,0,0,1,96.07,340H94l1.49,1.4c21.6,20.34,54.24,31.09,89.56,29.51a161.26,161.26,0,0,0,92.66-37.37l.09-1.85A102.2,102.2,0,0,0,275.26,304.18Z"/><path class="cls-9" d="M275.28,304.18h0c-4.42-19.34-14.14-38.25-28.11-54.68h0l-.28-.32c-1,3.85-6.46,19.71-11.93,25.06,21.19,9.57,39.64,52.36,39.88,61.34v.34c1-.78,2-1.54,2.92-2.35l.09-1.85A102.2,102.2,0,0,0,275.28,304.18Z"/><text class="cls-10" transform="translate(24.58 448.09)"><tspan class="cls-11">t</tspan><tspan class="cls-12" x="35.59" y="0">og</tspan><tspan class="cls-13" x="182.3" y="0">e</tspan><tspan x="250.51" y="0">ther</tspan></text><text class="cls-14" transform="translate(34.18 519.5)">t<tspan class="cls-15" x="13.93" y="0">o</tspan><tspan x="38.25" y="0">wards a</tspan><tspan class="cls-7" x="178.38" y="0"> </tspan><tspan class="cls-16" x="191.2" y="0">brighter futu</tspan><tspan class="cls-17" x="427.03" y="0">r</tspan><tspan class="cls-18" x="444.38" y="0">e</tspan></text></g></g></svg>